<svg xmlns="http://www.w3.org/2000/svg" viewBox="0 0 64 64" shape-rendering="crispEdges" role="img" aria-label="Obscura">
<rect x="16" y="6" width="32" height="1" fill="#ff6025"/>
<rect x="13" y="7" width="38" height="1" fill="#ff6025"/>
<rect x="11" y="8" width="42" height="1" fill="#ff6025"/>
<rect x="10" y="9" width="44" height="1" fill="#ff6025"/>
<rect x="9" y="10" width="46" height="1" fill="#ff6025"/>
<rect x="8" y="11" width="12" height="1" fill="#ff6025"/>
<rect x="20" y="11" width="2" height="1" fill="#ffc9a8"/>
<rect x="22" y="11" width="24" height="1" fill="#ff6025"/>
<rect x="46" y="11" width="1" height="1" fill="#f6f8f7"/>
<rect x="47" y="11" width="1" height="1" fill="#ffc9a8"/>
<rect x="48" y="11" width="8" height="1" fill="#ff6025"/>
<rect x="8" y="12" width="12" height="1" fill="#ff6025"/>
<rect x="20" y="12" width="2" height="1" fill="#ffc9a8"/>
<rect x="22" y="12" width="24" height="1" fill="#ff6025"/>
<rect x="46" y="12" width="2" height="1" fill="#ffc9a8"/>
<rect x="48" y="12" width="8" height="1" fill="#ff6025"/>
<rect x="7" y="13" width="12" height="1" fill="#ff6025"/>
<rect x="19" y="13" width="1" height="1" fill="#d54d1a"/>
<rect x="20" y="13" width="2" height="1" fill="#000000"/>
<rect x="22" y="13" width="23" height="1" fill="#ff6025"/>
<rect x="45" y="13" width="1" height="1" fill="#d54d1a"/>
<rect x="46" y="13" width="2" height="1" fill="#000000"/>
<rect x="48" y="13" width="9" height="1" fill="#ff6025"/>
<rect x="7" y="14" width="12" height="1" fill="#ff6025"/>
<rect x="19" y="14" width="1" height="1" fill="#d54d1a"/>
<rect x="20" y="14" width="2" height="1" fill="#000000"/>
<rect x="22" y="14" width="23" height="1" fill="#ff6025"/>
<rect x="45" y="14" width="1" height="1" fill="#d54d1a"/>
<rect x="46" y="14" width="2" height="1" fill="#000000"/>
<rect x="48" y="14" width="9" height="1" fill="#ff6025"/>
<rect x="7" y="15" width="12" height="1" fill="#ff6025"/>
<rect x="19" y="15" width="1" height="1" fill="#d54d1a"/>
<rect x="20" y="15" width="2" height="1" fill="#000000"/>
<rect x="22" y="15" width="23" height="1" fill="#ff6025"/>
<rect x="45" y="15" width="1" height="1" fill="#d54d1a"/>
<rect x="46" y="15" width="2" height="1" fill="#000000"/>
<rect x="48" y="15" width="9" height="1" fill="#ff6025"/>
<rect x="6" y="16" width="13" height="1" fill="#ff6025"/>
<rect x="19" y="16" width="1" height="1" fill="#d54d1a"/>
<rect x="20" y="16" width="2" height="1" fill="#000000"/>
<rect x="22" y="16" width="23" height="1" fill="#ff6025"/>
<rect x="45" y="16" width="1" height="1" fill="#d54d1a"/>
<rect x="46" y="16" width="2" height="1" fill="#000000"/>
<rect x="48" y="16" width="10" height="1" fill="#ff6025"/>
<rect x="6" y="17" width="5" height="1" fill="#ff6025"/>
<rect x="11" y="17" width="42" height="1" fill="#000000"/>
<rect x="53" y="17" width="1" height="1" fill="#d54d1a"/>
<rect x="54" y="17" width="4" height="1" fill="#ff6025"/>
<rect x="6" y="18" width="5" height="1" fill="#ff6025"/>
<rect x="11" y="18" width="42" height="1" fill="#000000"/>
<rect x="53" y="18" width="1" height="1" fill="#d54d1a"/>
<rect x="54" y="18" width="4" height="1" fill="#ff6025"/>
<rect x="6" y="19" width="2" height="1" fill="#ff6025"/>
<rect x="8" y="19" width="1" height="1" fill="#d54d1a"/>
<rect x="9" y="19" width="2" height="1" fill="#000000"/>
<rect x="11" y="19" width="1" height="1" fill="#d54d1a"/>
<rect x="12" y="19" width="11" height="1" fill="#ffc9a8"/>
<rect x="23" y="19" width="30" height="1" fill="#d54d1a"/>
<rect x="53" y="19" width="2" height="1" fill="#000000"/>
<rect x="55" y="19" width="1" height="1" fill="#d54d1a"/>
<rect x="56" y="19" width="2" height="1" fill="#ff6025"/>
<rect x="6" y="20" width="2" height="1" fill="#ff6025"/>
<rect x="8" y="20" width="1" height="1" fill="#d54d1a"/>
<rect x="9" y="20" width="2" height="1" fill="#000000"/>
<rect x="11" y="20" width="6" height="1" fill="#ffc9a8"/>
<rect x="17" y="20" width="6" height="1" fill="#f6f8f7"/>
<rect x="23" y="20" width="30" height="1" fill="#ff6025"/>
<rect x="53" y="20" width="2" height="1" fill="#000000"/>
<rect x="55" y="20" width="1" height="1" fill="#d54d1a"/>
<rect x="56" y="20" width="2" height="1" fill="#ff6025"/>
<rect x="6" y="21" width="2" height="1" fill="#ff6025"/>
<rect x="8" y="21" width="1" height="1" fill="#d54d1a"/>
<rect x="9" y="21" width="2" height="1" fill="#000000"/>
<rect x="11" y="21" width="3" height="1" fill="#ffc9a8"/>
<rect x="14" y="21" width="1" height="1" fill="#ff6025"/>
<rect x="15" y="21" width="35" height="1" fill="#ffc9a8"/>
<rect x="50" y="21" width="3" height="1" fill="#ff6025"/>
<rect x="53" y="21" width="2" height="1" fill="#000000"/>
<rect x="55" y="21" width="1" height="1" fill="#d54d1a"/>
<rect x="56" y="21" width="2" height="1" fill="#ff6025"/>
<rect x="6" y="22" width="2" height="1" fill="#ff6025"/>
<rect x="8" y="22" width="1" height="1" fill="#d54d1a"/>
<rect x="9" y="22" width="2" height="1" fill="#000000"/>
<rect x="11" y="22" width="2" height="1" fill="#ffc9a8"/>
<rect x="13" y="22" width="2" height="1" fill="#ff6025"/>
<rect x="15" y="22" width="2" height="1" fill="#ffc9a8"/>
<rect x="17" y="22" width="3" height="1" fill="#ff6025"/>
<rect x="20" y="22" width="31" height="1" fill="#ffc9a8"/>
<rect x="51" y="22" width="2" height="1" fill="#ff6025"/>
<rect x="53" y="22" width="2" height="1" fill="#000000"/>
<rect x="55" y="22" width="1" height="1" fill="#d54d1a"/>
<rect x="56" y="22" width="2" height="1" fill="#ff6025"/>
<rect x="6" y="23" width="2" height="1" fill="#ff6025"/>
<rect x="8" y="23" width="1" height="1" fill="#d54d1a"/>
<rect x="9" y="23" width="2" height="1" fill="#000000"/>
<rect x="11" y="23" width="2" height="1" fill="#ffc9a8"/>
<rect x="13" y="23" width="2" height="1" fill="#ff6025"/>
<rect x="15" y="23" width="3" height="1" fill="#ffc9a8"/>
<rect x="18" y="23" width="2" height="1" fill="#ff6025"/>
<rect x="20" y="23" width="1" height="1" fill="#f6f8f7"/>
<rect x="21" y="23" width="30" height="1" fill="#ffc9a8"/>
<rect x="51" y="23" width="2" height="1" fill="#ff6025"/>
<rect x="53" y="23" width="2" height="1" fill="#000000"/>
<rect x="55" y="23" width="1" height="1" fill="#d54d1a"/>
<rect x="56" y="23" width="2" height="1" fill="#ff6025"/>
<rect x="6" y="24" width="2" height="1" fill="#ff6025"/>
<rect x="8" y="24" width="1" height="1" fill="#d54d1a"/>
<rect x="9" y="24" width="2" height="1" fill="#000000"/>
<rect x="11" y="24" width="7" height="1" fill="#ffc9a8"/>
<rect x="18" y="24" width="1" height="1" fill="#ff6025"/>
<rect x="19" y="24" width="1" height="1" fill="#ffc9a8"/>
<rect x="20" y="24" width="29" height="1" fill="#f6f8f7"/>
<rect x="49" y="24" width="2" height="1" fill="#ffc9a8"/>
<rect x="51" y="24" width="2" height="1" fill="#ff6025"/>
<rect x="53" y="24" width="2" height="1" fill="#000000"/>
<rect x="55" y="24" width="1" height="1" fill="#d54d1a"/>
<rect x="56" y="24" width="2" height="1" fill="#ff6025"/>
<rect x="6" y="25" width="2" height="1" fill="#ff6025"/>
<rect x="8" y="25" width="1" height="1" fill="#d54d1a"/>
<rect x="9" y="25" width="2" height="1" fill="#000000"/>
<rect x="11" y="25" width="7" height="1" fill="#ffc9a8"/>
<rect x="18" y="25" width="1" height="1" fill="#ff6025"/>
<rect x="19" y="25" width="1" height="1" fill="#ffc9a8"/>
<rect x="20" y="25" width="29" height="1" fill="#f6f8f7"/>
<rect x="49" y="25" width="2" height="1" fill="#ffc9a8"/>
<rect x="51" y="25" width="2" height="1" fill="#ff6025"/>
<rect x="53" y="25" width="2" height="1" fill="#000000"/>
<rect x="55" y="25" width="1" height="1" fill="#d54d1a"/>
<rect x="56" y="25" width="2" height="1" fill="#ff6025"/>
<rect x="6" y="26" width="2" height="1" fill="#ff6025"/>
<rect x="8" y="26" width="1" height="1" fill="#d54d1a"/>
<rect x="9" y="26" width="2" height="1" fill="#000000"/>
<rect x="11" y="26" width="2" height="1" fill="#ffc9a8"/>
<rect x="13" y="26" width="2" height="1" fill="#ff6025"/>
<rect x="15" y="26" width="3" height="1" fill="#ffc9a8"/>
<rect x="18" y="26" width="1" height="1" fill="#ff6025"/>
<rect x="19" y="26" width="1" height="1" fill="#ffc9a8"/>
<rect x="20" y="26" width="29" height="1" fill="#f6f8f7"/>
<rect x="49" y="26" width="2" height="1" fill="#ffc9a8"/>
<rect x="51" y="26" width="2" height="1" fill="#ff6025"/>
<rect x="53" y="26" width="2" height="1" fill="#000000"/>
<rect x="55" y="26" width="1" height="1" fill="#d54d1a"/>
<rect x="56" y="26" width="2" height="1" fill="#ff6025"/>
<rect x="6" y="27" width="2" height="1" fill="#ff6025"/>
<rect x="8" y="27" width="1" height="1" fill="#d54d1a"/>
<rect x="9" y="27" width="2" height="1" fill="#000000"/>
<rect x="11" y="27" width="2" height="1" fill="#ffc9a8"/>
<rect x="13" y="27" width="2" height="1" fill="#ff6025"/>
<rect x="15" y="27" width="3" height="1" fill="#ffc9a8"/>
<rect x="18" y="27" width="1" height="1" fill="#ff6025"/>
<rect x="19" y="27" width="1" height="1" fill="#ffc9a8"/>
<rect x="20" y="27" width="29" height="1" fill="#f6f8f7"/>
<rect x="49" y="27" width="2" height="1" fill="#ffc9a8"/>
<rect x="51" y="27" width="2" height="1" fill="#ff6025"/>
<rect x="53" y="27" width="2" height="1" fill="#000000"/>
<rect x="55" y="27" width="1" height="1" fill="#d54d1a"/>
<rect x="56" y="27" width="2" height="1" fill="#ff6025"/>
<rect x="6" y="28" width="2" height="1" fill="#ff6025"/>
<rect x="8" y="28" width="1" height="1" fill="#d54d1a"/>
<rect x="9" y="28" width="2" height="1" fill="#000000"/>
<rect x="11" y="28" width="7" height="1" fill="#ffc9a8"/>
<rect x="18" y="28" width="1" height="1" fill="#ff6025"/>
<rect x="19" y="28" width="1" height="1" fill="#ffc9a8"/>
<rect x="20" y="28" width="4" height="1" fill="#f6f8f7"/>
<rect x="24" y="28" width="2" height="1" fill="#000000"/>
<rect x="26" y="28" width="1" height="1" fill="#ffc9a8"/>
<rect x="27" y="28" width="16" height="1" fill="#f6f8f7"/>
<rect x="43" y="28" width="1" height="1" fill="#d54d1a"/>
<rect x="44" y="28" width="1" height="1" fill="#000000"/>
<rect x="45" y="28" width="1" height="1" fill="#d54d1a"/>
<rect x="46" y="28" width="3" height="1" fill="#f6f8f7"/>
<rect x="49" y="28" width="2" height="1" fill="#ffc9a8"/>
<rect x="51" y="28" width="2" height="1" fill="#ff6025"/>
<rect x="53" y="28" width="2" height="1" fill="#000000"/>
<rect x="55" y="28" width="1" height="1" fill="#d54d1a"/>
<rect x="56" y="28" width="2" height="1" fill="#ff6025"/>
<rect x="6" y="29" width="2" height="1" fill="#ff6025"/>
<rect x="8" y="29" width="1" height="1" fill="#d54d1a"/>
<rect x="9" y="29" width="2" height="1" fill="#000000"/>
<rect x="11" y="29" width="7" height="1" fill="#ffc9a8"/>
<rect x="18" y="29" width="1" height="1" fill="#ff6025"/>
<rect x="19" y="29" width="1" height="1" fill="#ffc9a8"/>
<rect x="20" y="29" width="4" height="1" fill="#f6f8f7"/>
<rect x="24" y="29" width="2" height="1" fill="#000000"/>
<rect x="26" y="29" width="1" height="1" fill="#ffc9a8"/>
<rect x="27" y="29" width="16" height="1" fill="#f6f8f7"/>
<rect x="43" y="29" width="1" height="1" fill="#d54d1a"/>
<rect x="44" y="29" width="1" height="1" fill="#000000"/>
<rect x="45" y="29" width="1" height="1" fill="#d54d1a"/>
<rect x="46" y="29" width="3" height="1" fill="#f6f8f7"/>
<rect x="49" y="29" width="2" height="1" fill="#ffc9a8"/>
<rect x="51" y="29" width="2" height="1" fill="#ff6025"/>
<rect x="53" y="29" width="2" height="1" fill="#000000"/>
<rect x="55" y="29" width="1" height="1" fill="#d54d1a"/>
<rect x="56" y="29" width="2" height="1" fill="#ff6025"/>
<rect x="6" y="30" width="2" height="1" fill="#ff6025"/>
<rect x="8" y="30" width="1" height="1" fill="#d54d1a"/>
<rect x="9" y="30" width="2" height="1" fill="#000000"/>
<rect x="11" y="30" width="7" height="1" fill="#ffc9a8"/>
<rect x="18" y="30" width="1" height="1" fill="#ff6025"/>
<rect x="19" y="30" width="1" height="1" fill="#ffc9a8"/>
<rect x="20" y="30" width="4" height="1" fill="#f6f8f7"/>
<rect x="24" y="30" width="2" height="1" fill="#000000"/>
<rect x="26" y="30" width="1" height="1" fill="#ffc9a8"/>
<rect x="27" y="30" width="16" height="1" fill="#f6f8f7"/>
<rect x="43" y="30" width="1" height="1" fill="#d54d1a"/>
<rect x="44" y="30" width="1" height="1" fill="#000000"/>
<rect x="45" y="30" width="1" height="1" fill="#d54d1a"/>
<rect x="46" y="30" width="3" height="1" fill="#f6f8f7"/>
<rect x="49" y="30" width="2" height="1" fill="#ffc9a8"/>
<rect x="51" y="30" width="2" height="1" fill="#ff6025"/>
<rect x="53" y="30" width="2" height="1" fill="#000000"/>
<rect x="55" y="30" width="1" height="1" fill="#d54d1a"/>
<rect x="56" y="30" width="2" height="1" fill="#ff6025"/>
<rect x="6" y="31" width="2" height="1" fill="#ff6025"/>
<rect x="8" y="31" width="1" height="1" fill="#d54d1a"/>
<rect x="9" y="31" width="2" height="1" fill="#000000"/>
<rect x="11" y="31" width="7" height="1" fill="#ffc9a8"/>
<rect x="18" y="31" width="1" height="1" fill="#ff6025"/>
<rect x="19" y="31" width="1" height="1" fill="#ffc9a8"/>
<rect x="20" y="31" width="4" height="1" fill="#f6f8f7"/>
<rect x="24" y="31" width="2" height="1" fill="#000000"/>
<rect x="26" y="31" width="1" height="1" fill="#ffc9a8"/>
<rect x="27" y="31" width="16" height="1" fill="#f6f8f7"/>
<rect x="43" y="31" width="1" height="1" fill="#d54d1a"/>
<rect x="44" y="31" width="1" height="1" fill="#000000"/>
<rect x="45" y="31" width="1" height="1" fill="#d54d1a"/>
<rect x="46" y="31" width="3" height="1" fill="#f6f8f7"/>
<rect x="49" y="31" width="2" height="1" fill="#ffc9a8"/>
<rect x="51" y="31" width="2" height="1" fill="#ff6025"/>
<rect x="53" y="31" width="2" height="1" fill="#000000"/>
<rect x="55" y="31" width="1" height="1" fill="#d54d1a"/>
<rect x="56" y="31" width="2" height="1" fill="#ff6025"/>
<rect x="6" y="32" width="2" height="1" fill="#ff6025"/>
<rect x="8" y="32" width="1" height="1" fill="#d54d1a"/>
<rect x="9" y="32" width="2" height="1" fill="#000000"/>
<rect x="11" y="32" width="7" height="1" fill="#ffc9a8"/>
<rect x="18" y="32" width="1" height="1" fill="#ff6025"/>
<rect x="19" y="32" width="1" height="1" fill="#ffc9a8"/>
<rect x="20" y="32" width="4" height="1" fill="#f6f8f7"/>
<rect x="24" y="32" width="2" height="1" fill="#000000"/>
<rect x="26" y="32" width="1" height="1" fill="#ffc9a8"/>
<rect x="27" y="32" width="16" height="1" fill="#f6f8f7"/>
<rect x="43" y="32" width="1" height="1" fill="#d54d1a"/>
<rect x="44" y="32" width="1" height="1" fill="#000000"/>
<rect x="45" y="32" width="1" height="1" fill="#d54d1a"/>
<rect x="46" y="32" width="3" height="1" fill="#f6f8f7"/>
<rect x="49" y="32" width="2" height="1" fill="#ffc9a8"/>
<rect x="51" y="32" width="2" height="1" fill="#ff6025"/>
<rect x="53" y="32" width="2" height="1" fill="#000000"/>
<rect x="55" y="32" width="1" height="1" fill="#d54d1a"/>
<rect x="56" y="32" width="2" height="1" fill="#ff6025"/>
<rect x="6" y="33" width="2" height="1" fill="#ff6025"/>
<rect x="8" y="33" width="1" height="1" fill="#d54d1a"/>
<rect x="9" y="33" width="2" height="1" fill="#000000"/>
<rect x="11" y="33" width="7" height="1" fill="#ffc9a8"/>
<rect x="18" y="33" width="1" height="1" fill="#ff6025"/>
<rect x="19" y="33" width="1" height="1" fill="#ffc9a8"/>
<rect x="20" y="33" width="4" height="1" fill="#f6f8f7"/>
<rect x="24" y="33" width="2" height="1" fill="#ffc9a8"/>
<rect x="26" y="33" width="17" height="1" fill="#f6f8f7"/>
<rect x="43" y="33" width="3" height="1" fill="#ffc9a8"/>
<rect x="46" y="33" width="3" height="1" fill="#f6f8f7"/>
<rect x="49" y="33" width="2" height="1" fill="#ffc9a8"/>
<rect x="51" y="33" width="2" height="1" fill="#ff6025"/>
<rect x="53" y="33" width="2" height="1" fill="#000000"/>
<rect x="55" y="33" width="1" height="1" fill="#d54d1a"/>
<rect x="56" y="33" width="2" height="1" fill="#ff6025"/>
<rect x="6" y="34" width="2" height="1" fill="#ff6025"/>
<rect x="8" y="34" width="1" height="1" fill="#d54d1a"/>
<rect x="9" y="34" width="2" height="1" fill="#000000"/>
<rect x="11" y="34" width="7" height="1" fill="#ffc9a8"/>
<rect x="18" y="34" width="1" height="1" fill="#ff6025"/>
<rect x="19" y="34" width="1" height="1" fill="#ffc9a8"/>
<rect x="20" y="34" width="29" height="1" fill="#f6f8f7"/>
<rect x="49" y="34" width="2" height="1" fill="#ffc9a8"/>
<rect x="51" y="34" width="2" height="1" fill="#ff6025"/>
<rect x="53" y="34" width="2" height="1" fill="#000000"/>
<rect x="55" y="34" width="1" height="1" fill="#d54d1a"/>
<rect x="56" y="34" width="2" height="1" fill="#ff6025"/>
<rect x="6" y="35" width="2" height="1" fill="#ff6025"/>
<rect x="8" y="35" width="1" height="1" fill="#d54d1a"/>
<rect x="9" y="35" width="2" height="1" fill="#000000"/>
<rect x="11" y="35" width="7" height="1" fill="#ffc9a8"/>
<rect x="18" y="35" width="1" height="1" fill="#ff6025"/>
<rect x="19" y="35" width="1" height="1" fill="#ffc9a8"/>
<rect x="20" y="35" width="29" height="1" fill="#f6f8f7"/>
<rect x="49" y="35" width="2" height="1" fill="#ffc9a8"/>
<rect x="51" y="35" width="2" height="1" fill="#ff6025"/>
<rect x="53" y="35" width="2" height="1" fill="#000000"/>
<rect x="55" y="35" width="1" height="1" fill="#d54d1a"/>
<rect x="56" y="35" width="2" height="1" fill="#ff6025"/>
<rect x="6" y="36" width="2" height="1" fill="#ff6025"/>
<rect x="8" y="36" width="1" height="1" fill="#d54d1a"/>
<rect x="9" y="36" width="2" height="1" fill="#000000"/>
<rect x="11" y="36" width="2" height="1" fill="#ffc9a8"/>
<rect x="13" y="36" width="2" height="1" fill="#ff6025"/>
<rect x="15" y="36" width="3" height="1" fill="#ffc9a8"/>
<rect x="18" y="36" width="1" height="1" fill="#ff6025"/>
<rect x="19" y="36" width="1" height="1" fill="#ffc9a8"/>
<rect x="20" y="36" width="7" height="1" fill="#f6f8f7"/>
<rect x="27" y="36" width="3" height="1" fill="#ffc9a8"/>
<rect x="30" y="36" width="11" height="1" fill="#f6f8f7"/>
<rect x="41" y="36" width="3" height="1" fill="#ffc9a8"/>
<rect x="44" y="36" width="5" height="1" fill="#f6f8f7"/>
<rect x="49" y="36" width="2" height="1" fill="#ffc9a8"/>
<rect x="51" y="36" width="2" height="1" fill="#ff6025"/>
<rect x="53" y="36" width="2" height="1" fill="#000000"/>
<rect x="55" y="36" width="1" height="1" fill="#d54d1a"/>
<rect x="56" y="36" width="2" height="1" fill="#ff6025"/>
<rect x="6" y="37" width="2" height="1" fill="#ff6025"/>
<rect x="8" y="37" width="1" height="1" fill="#d54d1a"/>
<rect x="9" y="37" width="2" height="1" fill="#000000"/>
<rect x="11" y="37" width="2" height="1" fill="#ffc9a8"/>
<rect x="13" y="37" width="2" height="1" fill="#ff6025"/>
<rect x="15" y="37" width="3" height="1" fill="#ffc9a8"/>
<rect x="18" y="37" width="1" height="1" fill="#ff6025"/>
<rect x="19" y="37" width="1" height="1" fill="#ffc9a8"/>
<rect x="20" y="37" width="7" height="1" fill="#f6f8f7"/>
<rect x="27" y="37" width="2" height="1" fill="#000000"/>
<rect x="29" y="37" width="1" height="1" fill="#ffc9a8"/>
<rect x="30" y="37" width="11" height="1" fill="#f6f8f7"/>
<rect x="41" y="37" width="2" height="1" fill="#000000"/>
<rect x="43" y="37" width="1" height="1" fill="#ffc9a8"/>
<rect x="44" y="37" width="5" height="1" fill="#f6f8f7"/>
<rect x="49" y="37" width="2" height="1" fill="#ffc9a8"/>
<rect x="51" y="37" width="2" height="1" fill="#ff6025"/>
<rect x="53" y="37" width="2" height="1" fill="#000000"/>
<rect x="55" y="37" width="1" height="1" fill="#d54d1a"/>
<rect x="56" y="37" width="2" height="1" fill="#ff6025"/>
<rect x="6" y="38" width="2" height="1" fill="#ff6025"/>
<rect x="8" y="38" width="1" height="1" fill="#d54d1a"/>
<rect x="9" y="38" width="2" height="1" fill="#000000"/>
<rect x="11" y="38" width="7" height="1" fill="#ffc9a8"/>
<rect x="18" y="38" width="1" height="1" fill="#ff6025"/>
<rect x="19" y="38" width="1" height="1" fill="#ffc9a8"/>
<rect x="20" y="38" width="7" height="1" fill="#f6f8f7"/>
<rect x="27" y="38" width="1" height="1" fill="#d54d1a"/>
<rect x="28" y="38" width="1" height="1" fill="#000000"/>
<rect x="29" y="38" width="12" height="1" fill="#ffc9a8"/>
<rect x="41" y="38" width="1" height="1" fill="#d54d1a"/>
<rect x="42" y="38" width="1" height="1" fill="#000000"/>
<rect x="43" y="38" width="1" height="1" fill="#ffc9a8"/>
<rect x="44" y="38" width="5" height="1" fill="#f6f8f7"/>
<rect x="49" y="38" width="2" height="1" fill="#ffc9a8"/>
<rect x="51" y="38" width="2" height="1" fill="#ff6025"/>
<rect x="53" y="38" width="2" height="1" fill="#000000"/>
<rect x="55" y="38" width="1" height="1" fill="#d54d1a"/>
<rect x="56" y="38" width="2" height="1" fill="#ff6025"/>
<rect x="6" y="39" width="2" height="1" fill="#ff6025"/>
<rect x="8" y="39" width="1" height="1" fill="#d54d1a"/>
<rect x="9" y="39" width="2" height="1" fill="#000000"/>
<rect x="11" y="39" width="7" height="1" fill="#ffc9a8"/>
<rect x="18" y="39" width="1" height="1" fill="#ff6025"/>
<rect x="19" y="39" width="1" height="1" fill="#ffc9a8"/>
<rect x="20" y="39" width="9" height="1" fill="#f6f8f7"/>
<rect x="29" y="39" width="1" height="1" fill="#d54d1a"/>
<rect x="30" y="39" width="11" height="1" fill="#000000"/>
<rect x="41" y="39" width="1" height="1" fill="#ffc9a8"/>
<rect x="42" y="39" width="7" height="1" fill="#f6f8f7"/>
<rect x="49" y="39" width="2" height="1" fill="#ffc9a8"/>
<rect x="51" y="39" width="2" height="1" fill="#ff6025"/>
<rect x="53" y="39" width="2" height="1" fill="#000000"/>
<rect x="55" y="39" width="1" height="1" fill="#d54d1a"/>
<rect x="56" y="39" width="2" height="1" fill="#ff6025"/>
<rect x="6" y="40" width="2" height="1" fill="#ff6025"/>
<rect x="8" y="40" width="1" height="1" fill="#d54d1a"/>
<rect x="9" y="40" width="2" height="1" fill="#000000"/>
<rect x="11" y="40" width="2" height="1" fill="#ffc9a8"/>
<rect x="13" y="40" width="2" height="1" fill="#ff6025"/>
<rect x="15" y="40" width="3" height="1" fill="#ffc9a8"/>
<rect x="18" y="40" width="1" height="1" fill="#ff6025"/>
<rect x="19" y="40" width="1" height="1" fill="#ffc9a8"/>
<rect x="20" y="40" width="9" height="1" fill="#f6f8f7"/>
<rect x="29" y="40" width="1" height="1" fill="#d54d1a"/>
<rect x="30" y="40" width="11" height="1" fill="#000000"/>
<rect x="41" y="40" width="1" height="1" fill="#ffc9a8"/>
<rect x="42" y="40" width="7" height="1" fill="#f6f8f7"/>
<rect x="49" y="40" width="2" height="1" fill="#ffc9a8"/>
<rect x="51" y="40" width="2" height="1" fill="#ff6025"/>
<rect x="53" y="40" width="2" height="1" fill="#000000"/>
<rect x="55" y="40" width="1" height="1" fill="#d54d1a"/>
<rect x="56" y="40" width="2" height="1" fill="#ff6025"/>
<rect x="6" y="41" width="2" height="1" fill="#ff6025"/>
<rect x="8" y="41" width="1" height="1" fill="#d54d1a"/>
<rect x="9" y="41" width="2" height="1" fill="#000000"/>
<rect x="11" y="41" width="2" height="1" fill="#ffc9a8"/>
<rect x="13" y="41" width="2" height="1" fill="#ff6025"/>
<rect x="15" y="41" width="3" height="1" fill="#ffc9a8"/>
<rect x="18" y="41" width="1" height="1" fill="#ff6025"/>
<rect x="19" y="41" width="1" height="1" fill="#ffc9a8"/>
<rect x="20" y="41" width="29" height="1" fill="#f6f8f7"/>
<rect x="49" y="41" width="2" height="1" fill="#ffc9a8"/>
<rect x="51" y="41" width="2" height="1" fill="#ff6025"/>
<rect x="53" y="41" width="2" height="1" fill="#000000"/>
<rect x="55" y="41" width="1" height="1" fill="#d54d1a"/>
<rect x="56" y="41" width="2" height="1" fill="#ff6025"/>
<rect x="6" y="42" width="2" height="1" fill="#ff6025"/>
<rect x="8" y="42" width="1" height="1" fill="#d54d1a"/>
<rect x="9" y="42" width="2" height="1" fill="#000000"/>
<rect x="11" y="42" width="7" height="1" fill="#ffc9a8"/>
<rect x="18" y="42" width="1" height="1" fill="#ff6025"/>
<rect x="19" y="42" width="1" height="1" fill="#ffc9a8"/>
<rect x="20" y="42" width="29" height="1" fill="#f6f8f7"/>
<rect x="49" y="42" width="2" height="1" fill="#ffc9a8"/>
<rect x="51" y="42" width="2" height="1" fill="#ff6025"/>
<rect x="53" y="42" width="2" height="1" fill="#000000"/>
<rect x="55" y="42" width="1" height="1" fill="#d54d1a"/>
<rect x="56" y="42" width="2" height="1" fill="#ff6025"/>
<rect x="6" y="43" width="2" height="1" fill="#ff6025"/>
<rect x="8" y="43" width="1" height="1" fill="#d54d1a"/>
<rect x="9" y="43" width="2" height="1" fill="#000000"/>
<rect x="11" y="43" width="7" height="1" fill="#ffc9a8"/>
<rect x="18" y="43" width="35" height="1" fill="#ff6025"/>
<rect x="53" y="43" width="2" height="1" fill="#000000"/>
<rect x="55" y="43" width="1" height="1" fill="#d54d1a"/>
<rect x="56" y="43" width="2" height="1" fill="#ff6025"/>
<rect x="6" y="44" width="2" height="1" fill="#ff6025"/>
<rect x="8" y="44" width="1" height="1" fill="#d54d1a"/>
<rect x="9" y="44" width="2" height="1" fill="#000000"/>
<rect x="11" y="44" width="7" height="1" fill="#ffc9a8"/>
<rect x="18" y="44" width="35" height="1" fill="#ff6025"/>
<rect x="53" y="44" width="2" height="1" fill="#000000"/>
<rect x="55" y="44" width="1" height="1" fill="#d54d1a"/>
<rect x="56" y="44" width="2" height="1" fill="#ff6025"/>
<rect x="6" y="45" width="3" height="1" fill="#ff6025"/>
<rect x="9" y="45" width="2" height="1" fill="#d54d1a"/>
<rect x="11" y="45" width="2" height="1" fill="#000000"/>
<rect x="13" y="45" width="4" height="1" fill="#ffc9a8"/>
<rect x="17" y="45" width="5" height="1" fill="#ff6025"/>
<rect x="22" y="45" width="18" height="1" fill="#ffc9a8"/>
<rect x="40" y="45" width="4" height="1" fill="#ff6025"/>
<rect x="44" y="45" width="1" height="1" fill="#ffc9a8"/>
<rect x="45" y="45" width="4" height="1" fill="#ff6025"/>
<rect x="49" y="45" width="1" height="1" fill="#d54d1a"/>
<rect x="50" y="45" width="3" height="1" fill="#000000"/>
<rect x="53" y="45" width="2" height="1" fill="#d54d1a"/>
<rect x="55" y="45" width="3" height="1" fill="#ff6025"/>
<rect x="6" y="46" width="5" height="1" fill="#ff6025"/>
<rect x="11" y="46" width="2" height="1" fill="#000000"/>
<rect x="13" y="46" width="5" height="1" fill="#ffc9a8"/>
<rect x="18" y="46" width="4" height="1" fill="#ff6025"/>
<rect x="22" y="46" width="18" height="1" fill="#ffc9a8"/>
<rect x="40" y="46" width="3" height="1" fill="#ff6025"/>
<rect x="43" y="46" width="1" height="1" fill="#ffc9a8"/>
<rect x="44" y="46" width="1" height="1" fill="#f6f8f7"/>
<rect x="45" y="46" width="1" height="1" fill="#ffc9a8"/>
<rect x="46" y="46" width="3" height="1" fill="#ff6025"/>
<rect x="49" y="46" width="1" height="1" fill="#d54d1a"/>
<rect x="50" y="46" width="3" height="1" fill="#000000"/>
<rect x="53" y="46" width="1" height="1" fill="#d54d1a"/>
<rect x="54" y="46" width="4" height="1" fill="#ff6025"/>
<rect x="6" y="47" width="1" height="1" fill="#d54d1a"/>
<rect x="7" y="47" width="4" height="1" fill="#ff6025"/>
<rect x="11" y="47" width="7" height="1" fill="#d54d1a"/>
<rect x="18" y="47" width="29" height="1" fill="#ff6025"/>
<rect x="47" y="47" width="1" height="1" fill="#d54d1a"/>
<rect x="48" y="47" width="1" height="1" fill="#000000"/>
<rect x="49" y="47" width="4" height="1" fill="#d54d1a"/>
<rect x="53" y="47" width="4" height="1" fill="#ff6025"/>
<rect x="57" y="47" width="1" height="1" fill="#d54d1a"/>
<rect x="7" y="48" width="6" height="1" fill="#ff6025"/>
<rect x="13" y="48" width="4" height="1" fill="#000000"/>
<rect x="17" y="48" width="1" height="1" fill="#d54d1a"/>
<rect x="18" y="48" width="29" height="1" fill="#ff6025"/>
<rect x="47" y="48" width="1" height="1" fill="#d54d1a"/>
<rect x="48" y="48" width="2" height="1" fill="#000000"/>
<rect x="50" y="48" width="7" height="1" fill="#ff6025"/>
<rect x="7" y="49" width="4" height="1" fill="#ff6025"/>
<rect x="11" y="49" width="5" height="1" fill="#d54d1a"/>
<rect x="16" y="49" width="1" height="1" fill="#000000"/>
<rect x="17" y="49" width="1" height="1" fill="#d54d1a"/>
<rect x="18" y="49" width="29" height="1" fill="#ff6025"/>
<rect x="47" y="49" width="5" height="1" fill="#d54d1a"/>
<rect x="52" y="49" width="5" height="1" fill="#ff6025"/>
<rect x="7" y="50" width="4" height="1" fill="#ff6025"/>
<rect x="11" y="50" width="2" height="1" fill="#000000"/>
<rect x="13" y="50" width="1" height="1" fill="#d54d1a"/>
<rect x="14" y="50" width="8" height="1" fill="#ff6025"/>
<rect x="22" y="50" width="2" height="1" fill="#ffc9a8"/>
<rect x="24" y="50" width="19" height="1" fill="#d54d1a"/>
<rect x="43" y="50" width="7" height="1" fill="#ff6025"/>
<rect x="50" y="50" width="2" height="1" fill="#000000"/>
<rect x="52" y="50" width="1" height="1" fill="#d54d1a"/>
<rect x="53" y="50" width="4" height="1" fill="#ff6025"/>
<rect x="7" y="51" width="1" height="1" fill="#d54d1a"/>
<rect x="8" y="51" width="3" height="1" fill="#ff6025"/>
<rect x="11" y="51" width="2" height="1" fill="#000000"/>
<rect x="13" y="51" width="1" height="1" fill="#d54d1a"/>
<rect x="14" y="51" width="1" height="1" fill="#ff6025"/>
<rect x="15" y="51" width="3" height="1" fill="#d54d1a"/>
<rect x="18" y="51" width="4" height="1" fill="#ff6025"/>
<rect x="22" y="51" width="2" height="1" fill="#ffc9a8"/>
<rect x="24" y="51" width="19" height="1" fill="#d54d1a"/>
<rect x="43" y="51" width="2" height="1" fill="#ff6025"/>
<rect x="45" y="51" width="3" height="1" fill="#d54d1a"/>
<rect x="48" y="51" width="1" height="1" fill="#ff6025"/>
<rect x="49" y="51" width="1" height="1" fill="#d54d1a"/>
<rect x="50" y="51" width="2" height="1" fill="#000000"/>
<rect x="52" y="51" width="1" height="1" fill="#d54d1a"/>
<rect x="53" y="51" width="3" height="1" fill="#ff6025"/>
<rect x="56" y="51" width="1" height="1" fill="#d54d1a"/>
<rect x="8" y="52" width="3" height="1" fill="#ff6025"/>
<rect x="11" y="52" width="2" height="1" fill="#000000"/>
<rect x="13" y="52" width="1" height="1" fill="#d54d1a"/>
<rect x="14" y="52" width="1" height="1" fill="#ff6025"/>
<rect x="15" y="52" width="2" height="1" fill="#000000"/>
<rect x="17" y="52" width="1" height="1" fill="#d54d1a"/>
<rect x="18" y="52" width="4" height="1" fill="#ff6025"/>
<rect x="22" y="52" width="2" height="1" fill="#ffc9a8"/>
<rect x="24" y="52" width="20" height="1" fill="#d54d1a"/>
<rect x="44" y="52" width="1" height="1" fill="#ff6025"/>
<rect x="45" y="52" width="1" height="1" fill="#d54d1a"/>
<rect x="46" y="52" width="2" height="1" fill="#000000"/>
<rect x="48" y="52" width="1" height="1" fill="#ff6025"/>
<rect x="49" y="52" width="1" height="1" fill="#d54d1a"/>
<rect x="50" y="52" width="2" height="1" fill="#000000"/>
<rect x="52" y="52" width="1" height="1" fill="#d54d1a"/>
<rect x="53" y="52" width="3" height="1" fill="#ff6025"/>
<rect x="9" y="53" width="2" height="1" fill="#ff6025"/>
<rect x="11" y="53" width="2" height="1" fill="#000000"/>
<rect x="13" y="53" width="1" height="1" fill="#d54d1a"/>
<rect x="14" y="53" width="1" height="1" fill="#ff6025"/>
<rect x="15" y="53" width="2" height="1" fill="#000000"/>
<rect x="17" y="53" width="1" height="1" fill="#d54d1a"/>
<rect x="18" y="53" width="4" height="1" fill="#ff6025"/>
<rect x="22" y="53" width="2" height="1" fill="#ffc9a8"/>
<rect x="24" y="53" width="20" height="1" fill="#d54d1a"/>
<rect x="44" y="53" width="1" height="1" fill="#ff6025"/>
<rect x="45" y="53" width="1" height="1" fill="#d54d1a"/>
<rect x="46" y="53" width="2" height="1" fill="#000000"/>
<rect x="48" y="53" width="1" height="1" fill="#ff6025"/>
<rect x="49" y="53" width="1" height="1" fill="#d54d1a"/>
<rect x="50" y="53" width="2" height="1" fill="#000000"/>
<rect x="52" y="53" width="1" height="1" fill="#d54d1a"/>
<rect x="53" y="53" width="2" height="1" fill="#ff6025"/>
<rect x="10" y="54" width="1" height="1" fill="#ff6025"/>
<rect x="11" y="54" width="2" height="1" fill="#000000"/>
<rect x="13" y="54" width="1" height="1" fill="#d54d1a"/>
<rect x="14" y="54" width="1" height="1" fill="#ff6025"/>
<rect x="15" y="54" width="2" height="1" fill="#000000"/>
<rect x="17" y="54" width="1" height="1" fill="#d54d1a"/>
<rect x="18" y="54" width="4" height="1" fill="#ff6025"/>
<rect x="22" y="54" width="2" height="1" fill="#ffc9a8"/>
<rect x="24" y="54" width="20" height="1" fill="#d54d1a"/>
<rect x="44" y="54" width="1" height="1" fill="#ff6025"/>
<rect x="45" y="54" width="1" height="1" fill="#d54d1a"/>
<rect x="46" y="54" width="2" height="1" fill="#000000"/>
<rect x="48" y="54" width="1" height="1" fill="#ff6025"/>
<rect x="49" y="54" width="1" height="1" fill="#d54d1a"/>
<rect x="50" y="54" width="2" height="1" fill="#000000"/>
<rect x="52" y="54" width="1" height="1" fill="#d54d1a"/>
<rect x="53" y="54" width="1" height="1" fill="#ff6025"/>
<rect x="11" y="55" width="2" height="1" fill="#000000"/>
<rect x="13" y="55" width="1" height="1" fill="#d54d1a"/>
<rect x="14" y="55" width="1" height="1" fill="#ff6025"/>
<rect x="15" y="55" width="2" height="1" fill="#000000"/>
<rect x="17" y="55" width="1" height="1" fill="#d54d1a"/>
<rect x="18" y="55" width="2" height="1" fill="#ffc9a8"/>
<rect x="20" y="55" width="2" height="1" fill="#ff6025"/>
<rect x="22" y="55" width="2" height="1" fill="#ffc9a8"/>
<rect x="24" y="55" width="20" height="1" fill="#d54d1a"/>
<rect x="44" y="55" width="1" height="1" fill="#ff6025"/>
<rect x="45" y="55" width="1" height="1" fill="#d54d1a"/>
<rect x="46" y="55" width="2" height="1" fill="#000000"/>
<rect x="48" y="55" width="1" height="1" fill="#ff6025"/>
<rect x="49" y="55" width="1" height="1" fill="#d54d1a"/>
<rect x="50" y="55" width="2" height="1" fill="#000000"/>
<rect x="52" y="55" width="1" height="1" fill="#d54d1a"/>
<rect x="12" y="56" width="1" height="1" fill="#000000"/>
<rect x="13" y="56" width="1" height="1" fill="#d54d1a"/>
<rect x="14" y="56" width="1" height="1" fill="#ff6025"/>
<rect x="15" y="56" width="2" height="1" fill="#000000"/>
<rect x="17" y="56" width="1" height="1" fill="#d54d1a"/>
<rect x="18" y="56" width="2" height="1" fill="#ffc9a8"/>
<rect x="20" y="56" width="2" height="1" fill="#ff6025"/>
<rect x="22" y="56" width="2" height="1" fill="#ffc9a8"/>
<rect x="24" y="56" width="19" height="1" fill="#d54d1a"/>
<rect x="43" y="56" width="2" height="1" fill="#ff6025"/>
<rect x="45" y="56" width="1" height="1" fill="#d54d1a"/>
<rect x="46" y="56" width="2" height="1" fill="#000000"/>
<rect x="48" y="56" width="1" height="1" fill="#ff6025"/>
<rect x="49" y="56" width="1" height="1" fill="#d54d1a"/>
<rect x="50" y="56" width="2" height="1" fill="#000000"/>
<rect x="15" y="57" width="2" height="1" fill="#000000"/>
<rect x="17" y="57" width="1" height="1" fill="#d54d1a"/>
<rect x="18" y="57" width="2" height="1" fill="#ffc9a8"/>
<rect x="20" y="57" width="1" height="1" fill="#d54d1a"/>
<rect x="21" y="57" width="1" height="1" fill="#ff6025"/>
<rect x="22" y="57" width="2" height="1" fill="#ffc9a8"/>
<rect x="24" y="57" width="20" height="1" fill="#d54d1a"/>
<rect x="44" y="57" width="1" height="1" fill="#ff6025"/>
<rect x="45" y="57" width="1" height="1" fill="#d54d1a"/>
<rect x="46" y="57" width="2" height="1" fill="#000000"/>
<rect x="48" y="57" width="1" height="1" fill="#d54d1a"/>
</svg>
